<?xml version="1.0" encoding="UTF-8"?>
<svg id="Layer_2" data-name="Layer 2" xmlns="http://www.w3.org/2000/svg" viewBox="0 0 351.61 57.36">
  <defs>
    <style>
      .cls-1 {
        fill: #65c8d0;
        stroke: #65c8d0;
        stroke-width: 3px;
      }

      .cls-1, .cls-2, .cls-3 {
        stroke-linecap: round;
        stroke-linejoin: round;
      }

      .cls-2 {
        stroke-width: 5px;
      }

      .cls-2, .cls-3 {
        fill: none;
        stroke: #f28c28;
      }

      .cls-3 {
        stroke-width: 4px;
      }

      .cls-4 {
        fill: #cae6e8;
      }
    </style>
  </defs>
  <g id="Layer_1-2" data-name="Layer 1">
    <g>
      <path d="M96.43,1.14h9.06c8.82,0,15.18,3.84,15.18,12.48,0,9.36-6.36,13.08-15.18,13.08h-6.9v15.54c0,1.14-.24,1.38-1.32,1.38h-.96c-1.14,0-1.38-.24-1.38-1.38V2.7c0-1.32.24-1.56,1.5-1.56ZM98.59,4.26v19.32h6.9c6.9,0,11.28-2.94,11.28-9.96,0-6.48-4.38-9.36-11.28-9.36h-6.9Z"/>
      <path d="M134.41,28.86c2.52,0,6.12.12,9.06.54v-3.36c0-4.8-2.7-7.56-8.28-7.56-3,0-5.88.66-7.8,1.2-1.44.36-1.56.24-1.56-.48,0-1.56.6-2.1,1.86-2.58,1.92-.66,4.92-1.2,7.8-1.2,7.38,0,11.58,3.72,11.58,10.08v17.1c0,.96-.06,1.26-.72,1.26-1.98,0-2.88-.9-2.88-2.82v-.06c-1.62,1.2-4.68,3-10.62,3s-9.12-2.64-9.12-7.92,3.72-7.2,10.68-7.2ZM143.47,38.1v-5.94c-2.7-.42-6.18-.48-8.4-.48-4.74,0-7.74.6-7.74,4.44s2.4,4.92,6.36,4.92c5.46,0,8.04-1.62,9.78-2.94Z"/>
      <path d="M156.67,55.26c-1.5-.78-2.1-1.56-2.1-2.82,0-.9.42-1.08,1.32-.6,2.04,1.02,5.46,2.46,10.68,2.46s11.04-1.62,11.04-12.6l.06-3.12c-1.92,3.24-5.28,5.46-10.68,5.46-8.4,0-13.14-5.7-13.14-14.16s4.8-14.46,13.08-14.46c5.34,0,8.7,2.34,10.68,5.7v-2.1c0-2.16.84-3.18,2.82-3.18.72,0,.78.3.78,1.5v24.78c0,12.66-7.2,15.24-14.4,15.24-5.4,0-8.52-1.26-10.14-2.1ZM167.65,18.66c-6.72,0-10.02,4.86-10.02,11.16s3.24,10.98,10.02,10.98c7.32,0,10.14-5.4,10.14-10.92s-3-11.22-10.14-11.22Z"/>
      <path d="M192.01,31.44c.36,6.9,4.08,9.36,10.26,9.36,5.04,0,7.74-1.26,10.74-2.52.78-.3,1.14-.12,1.14.6,0,1.14-.6,2.28-2.1,3-2.1,1.08-5.82,2.16-10.2,2.16-8.52,0-13.56-3.96-13.56-13.68s4.68-14.94,13.2-14.94,12.78,5.52,12.78,13.98c0,1.08-.3,2.04-1.92,2.04h-20.34ZM192.07,28.5h18.66c-.12-6.18-3.06-10.02-9.24-10.02s-9,3.78-9.42,10.02Z"/>
      <path d="M218.83,30c0-8.82,4.44-14.58,14.46-14.58,3.06,0,5.28.66,6.9,1.5,1.02.6,1.86,1.38,1.86,3.9,0,1.2-.3,1.44-1.86.9-1.32-.6-3.24-1.38-6.36-1.38-6.84,0-9.3,4.14-9.3,9.54,0,5.1,2.28,9.24,9.72,9.24,3,0,5.04-.78,6.48-1.2,1.68-.42,1.86-.42,1.86.54,0,1.38-.18,3.06-2.28,4.14-1.8.96-4.62,1.44-7.26,1.44-10.08,0-14.22-5.82-14.22-14.04Z"/>
      <path d="M253.03,4.32v37.2c0,1.8-.3,2.1-2.1,2.1h-1.2c-1.74,0-2.1-.3-2.1-2.1V1.86c0-1.44,0-1.86,1.08-1.86,3.06,0,4.32,1.32,4.32,4.32Z"/>
      <path d="M273.49,15.42c9.3,0,14.64,5.7,14.64,14.4s-5.34,14.28-14.64,14.28-14.7-5.58-14.7-14.28,5.22-14.4,14.7-14.4ZM273.49,39.3c5.76,0,9-3.9,9-9.48s-3.24-9.6-9-9.6-9.06,4.02-9.06,9.6,3.24,9.48,9.06,9.48Z"/>
      <path d="M317.89,20.16v21.84c0,1.44,0,1.86-1.02,1.86-2.94,0-4.26-1.14-4.38-3.72-1.74,2.16-4.62,3.78-8.76,3.78-7.14,0-10.02-4.08-10.02-10.98v-15.24c0-1.44.06-1.86,1.08-1.86,3.06,0,4.32,1.32,4.32,4.32v12.66c0,3.48,1.62,6.18,6.06,6.18,4.8,0,7.02-2.76,7.32-6.72v-14.58c0-1.44,0-1.86,1.08-1.86,3.06,0,4.32,1.32,4.32,4.32Z"/>
      <path d="M351.61,4.32v37.92c0,1.38,0,1.86-1.08,1.86-2.94,0-4.32-1.2-4.38-3.96-2.04,2.4-5.1,3.96-9.54,3.96-8.4,0-13.32-5.7-13.32-14.22s4.98-14.4,13.26-14.4c4.44,0,7.56,1.68,9.6,4.2V1.86c0-1.44.06-1.86,1.08-1.86,3.12,0,4.38,1.32,4.38,4.32ZM337.75,20.4c-5.82,0-8.64,4.26-8.64,9.48s2.76,9.3,8.7,9.3c6.24,0,8.76-4.56,8.76-9.3s-2.64-9.48-8.82-9.48Z"/>
    </g>
    <g>
      <path class="cls-1" d="M59.72,29.86c1.02-1.42,1.62-3.17,1.62-5.06,0-3.54-2.11-6.58-5.15-7.94.42-1.18.66-2.45.66-3.78,0-6.24-5.06-11.3-11.3-11.3-4.49,0-8.35,2.63-10.18,6.42-.82-.23-1.68-.37-2.58-.37-4.27,0-7.86,2.85-9,6.75-1.04-.38-2.16-.6-3.34-.6-5.39,0-9.75,4.37-9.75,9.75,0,2.56.99,4.89,2.6,6.63l22.72,12.03,23.7-12.55Z"/>
      <path class="cls-4" d="M33.18,30.45l-1.76,8.28c-.29,1.4-.58,1.65-1.94,1.65l-.78-1.07c-1.4,0-1.49-.67-1.2-2.07l4.32-20.32c.25-1.15.32-1.47,1.15-1.47,1.84,0,2.66.61,2.81,1.91,1.48-1.3,3.42-2.16,5.9-2.16,5.11,0,7.3,3.78,6.19,9.28-1.01,4.71-4.46,7.88-9.5,7.88-2.55,0-4.21-.72-5.18-1.91ZM37.78,28.47c3.06,0,4.93-2.16,5.47-4.68.5-2.48-.43-4.71-3.49-4.71s-4.93,2.3-5.43,4.71c-.54,2.45.32,4.68,3.45,4.68Z"/>
      <path class="cls-2" d="M2.5,35.43c17.34,4.99,27.27,12.2,31.34,15.7,1.26,1.08,3.11,1.08,4.37,0,4.07-3.5,14-10.71,31.34-15.7"/>
      <path class="cls-3" d="M6.08,29.09c18.21,5.24,26.13,11.95,28.81,14.43.64.59,1.62.59,2.26,0,2.68-2.48,10.59-9.19,28.81-14.43"/>
    </g>
  </g>
</svg>